<svg width="25" height="24" viewBox="0 0 25 24" fill="none" xmlns="http://www.w3.org/2000/svg">
<g id="Telegram (Sign)">
<path id="Vector" fill-rule="evenodd" clip-rule="evenodd" d="M3.01239 10.8488C8.91795 8.27585 12.8559 6.57959 14.8263 5.76003C20.4521 3.42005 21.6211 3.01357 22.383 3.00014C22.5506 2.99719 22.9253 3.03872 23.168 3.23567C23.373 3.40197 23.4294 3.62661 23.4563 3.78428C23.4833 3.94195 23.5169 4.30112 23.4902 4.58177C23.1854 7.78504 21.8662 15.5585 21.1951 19.1462C20.9111 20.6643 20.352 21.1733 19.8107 21.2231C18.6343 21.3314 17.7409 20.4457 16.6015 19.6988C14.8186 18.53 13.8113 17.8025 12.0807 16.662C10.0806 15.3439 11.3772 14.6195 12.517 13.4356C12.8153 13.1258 17.9986 8.41117 18.0989 7.98348C18.1115 7.92999 18.1231 7.7306 18.0046 7.62532C17.8862 7.52004 17.7114 7.55604 17.5852 7.58467C17.4064 7.62526 14.5581 9.50789 9.04035 13.2326C8.23187 13.7877 7.49958 14.0582 6.84347 14.044C6.12016 14.0284 4.7288 13.6351 3.69447 13.2988C2.42583 12.8865 1.41753 12.6684 1.50533 11.9681C1.55106 11.6033 2.05341 11.2302 3.01239 10.8488Z" fill="url(#paint0_linear_406_9304)"/>
</g>
<defs>
<linearGradient id="paint0_linear_406_9304" x1="1101.5" y1="3" x2="1101.5" y2="1812.7" gradientUnits="userSpaceOnUse">
<stop stop-color="#2AABEE"/>
<stop offset="1" stop-color="#229ED9"/>
</linearGradient>
</defs>
</svg>
