<svg width="25" height="24" viewBox="0 0 25 24" fill="none" xmlns="http://www.w3.org/2000/svg">
<g id="VK">
<path id="Vector" d="M0.5 11.52C0.5 6.08942 0.5 3.37414 2.18707 1.68707C3.87414 0 6.58942 0 12.02 0H12.98C18.4106 0 21.1259 0 22.8129 1.68707C24.5 3.37414 24.5 6.08942 24.5 11.52V12.48C24.5 17.9106 24.5 20.6259 22.8129 22.3129C21.1259 24 18.4106 24 12.98 24H12.02C6.58942 24 3.87414 24 2.18707 22.3129C0.5 20.6259 0.5 17.9106 0.5 12.48V11.52Z" fill="#0077FF"/>
<path id="Vector_2" d="M13.27 17.2898C7.80003 17.2898 4.68006 13.5398 4.55005 7.2998H7.29006C7.38006 11.8798 9.40002 13.8198 11 14.2198V7.2998H13.5801V11.2498C15.1601 11.0798 16.8199 9.2798 17.3799 7.2998H19.96C19.53 9.73981 17.73 11.5398 16.45 12.2798C17.73 12.8798 19.7801 14.4498 20.5601 17.2898H17.72C17.11 15.3898 15.5901 13.9198 13.5801 13.7198V17.2898H13.27Z" fill="white"/>
</g>
</svg>
