<svg width="25" height="24" viewBox="0 0 25 24" fill="none" xmlns="http://www.w3.org/2000/svg">
<g id="YouTube">
<path id="Vector" d="M24.022 6.18541C23.8863 5.67482 23.6189 5.20883 23.2465 4.83407C22.8741 4.4593 22.4099 4.18891 21.9002 4.04996C20.0238 3.54541 12.5238 3.54541 12.5238 3.54541C12.5238 3.54541 5.0238 3.54541 3.14744 4.04996C2.63773 4.18891 2.17346 4.4593 1.80109 4.83407C1.42872 5.20883 1.16131 5.67482 1.02562 6.18541C0.523804 8.06996 0.523804 12 0.523804 12C0.523804 12 0.523804 15.93 1.02562 17.8145C1.16131 18.3251 1.42872 18.7911 1.80109 19.1658C2.17346 19.5406 2.63773 19.811 3.14744 19.95C5.0238 20.4545 12.5238 20.4545 12.5238 20.4545C12.5238 20.4545 20.0238 20.4545 21.9002 19.95C22.4099 19.811 22.8741 19.5406 23.2465 19.1658C23.6189 18.7911 23.8863 18.3251 24.022 17.8145C24.5238 15.93 24.5238 12 24.5238 12C24.5238 12 24.5238 8.06996 24.022 6.18541Z" fill="#FF0302"/>
<path id="Vector_2" d="M10.0693 15.5689V8.43164L16.3421 12.0003L10.0693 15.5689Z" fill="#FEFEFE"/>
</g>
</svg>
